<svg width="18" height="18" viewBox="0 0 18 18" fill="none" xmlns="http://www.w3.org/2000/svg">
<rect x="3" y="3" width="12" height="12" rx="6" fill="black"/>
<path d="M7.83732 12.5311L13.2847 7.10526L11.6053 5.40431L7.83732 9.15072L6.26555 7.60048L4.58612 9.30144L7.83732 12.5311ZM9 18C7.7512 18 6.58143 17.7661 5.49071 17.2984C4.39997 16.8307 3.44602 16.1883 2.62886 15.3711C1.8117 14.554 1.16927 13.6 0.701569 12.5093C0.233856 11.4186 0 10.2488 0 9C0 7.73684 0.233856 6.56349 0.701569 5.47995C1.16927 4.39639 1.8117 3.44602 2.62886 2.62886C3.44602 1.8117 4.39997 1.16927 5.49071 0.701569C6.58143 0.233856 7.7512 0 9 0C10.2632 0 11.4365 0.233856 12.5201 0.701569C13.6036 1.16927 14.554 1.8117 15.3711 2.62886C16.1883 3.44602 16.8307 4.39639 17.2984 5.47995C17.7661 6.56349 18 7.73684 18 9C18 10.2488 17.7661 11.4186 17.2984 12.5093C16.8307 13.6 16.1883 14.554 15.3711 15.3711C14.554 16.1883 13.6036 16.8307 12.5201 17.2984C11.4365 17.7661 10.2632 18 9 18Z" fill="white"/>
</svg>
