<svg xmlns="http://www.w3.org/2000/svg" viewBox="0 0 100 100"><path fill="#D9434D" d="m88.943 44.394-6.863-5.073h-.07v-12.67h-.004L60.009 5.126l-.01.011H17.972v34.216l-6.916 5.226V73.209H17.972v21.666H82.01V73.208H88.926V64.27l.017-19.876zm-55.27 21.553V53.318h4.265c.864 0 1.611.103 2.241.305.63.204 1.147.486 1.554.85.406.362.706.793.9 1.293.195.498.292 1.041.292 1.627 0 .621-.101 1.189-.305 1.707a3.482 3.482 0 0 1-.923 1.33c-.412.371-.931.66-1.558.865-.626.207-1.36.311-2.202.311h-1.654v4.343l-2.61-.002zm11.493 0V53.318h4.856c.969 0 1.851.156 2.646.471.795.313 1.477.75 2.041 1.311s1.004 1.226 1.314 1.998c.311.771.465 1.614.465 2.532 0 .922-.154 1.771-.465 2.545a5.831 5.831 0 0 1-1.314 1.998 6.005 6.005 0 0 1-2.041 1.306c-.795.313-1.677.47-2.646.47l-4.856-.002zm21.867-10.583h-5.414v3.489h4.544v2.055h-4.544v5.039h-2.628V53.318h8.042v2.046zM56.915 8.221l-.021 21.486 22.031.025V44.41h-57.87V8.221h35.86zM78.926 91.79H21.055V73.208h57.871V91.79z"/><path fill="#D9434D" d="M53.547 61.422c.176-.527.262-1.125.262-1.792 0-.662-.086-1.257-.262-1.785a3.768 3.768 0 0 0-.748-1.34 3.273 3.273 0 0 0-1.188-.845c-.467-.198-.996-.296-1.588-.296h-2.228v8.538h2.228c.592 0 1.122-.098 1.588-.293a3.167 3.167 0 0 0 1.188-.844c.325-.367.574-.815.748-1.343zm-13.812-2.411c.38-.395.57-.934.57-1.618 0-.313-.047-.599-.143-.856a1.706 1.706 0 0 0-.436-.662 1.957 1.957 0 0 0-.735-.422 3.333 3.333 0 0 0-1.053-.147h-1.654v4.299h1.654c.818-.001 1.417-.2 1.797-.594z"/></svg>