<svg width="24" height="25" viewBox="0 0 24 25" fill="none" xmlns="http://www.w3.org/2000/svg">
<g id="tabler:trash">
<path id="Vector" d="M4 7.50012H20M10 11.5001V17.5001M14 11.5001V17.5001M5 7.50012L6 19.5001C6 20.0306 6.21071 20.5393 6.58579 20.9143C6.96086 21.2894 7.46957 21.5001 8 21.5001H16C16.5304 21.5001 17.0391 21.2894 17.4142 20.9143C17.7893 20.5393 18 20.0306 18 19.5001L19 7.50012M9 7.50012V4.50012C9 4.23491 9.10536 3.98055 9.29289 3.79302C9.48043 3.60548 9.73478 3.50012 10 3.50012H14C14.2652 3.50012 14.5196 3.60548 14.7071 3.79302C14.8946 3.98055 15 4.23491 15 4.50012V7.50012" stroke="#EE3131" stroke-width="2" stroke-linecap="round" stroke-linejoin="round"/>
</g>
</svg>
